<svg width="30" height="30" viewBox="0 0 30 30" fill="none" xmlns="http://www.w3.org/2000/svg">
<g clip-path="url(#clip0_4717_2657)">
<path d="M29.9 11.9C29.9 11.5 29.6 11.2 29.4 10.9C29.2 10.6 28.8 10.3 28.2 9.7L18.1 1.6C17 0.7 16.5 0.3 15.9 0.2C15.4 0.1 14.8 0.1 14.3 0.2C13.7 0.4 13.2 0.8 12.1 1.6L1.9 9.7C1.2 10.2 0.9 10.5 0.6 10.9C0.4 11.2 0.2 11.5 0.1 11.9C0 12.3 0 12.8 0 13.6V25.1C0 26.8 0 27.7 0.3 28.3C0.6 28.9 1 29.4 1.6 29.6C2.2 29.9 3.1 29.9 4.8 29.9H12V22.9C12 22.3 12.4 21.9 13 21.9H17C17.6 21.9 18 22.3 18 22.9V29.9H25.2C26.9 29.9 27.7 29.9 28.4 29.6C29 29.3 29.4 28.8 29.7 28.3C30 27.6 30 26.8 30 25.1V13.6C30 12.7 30 12.3 29.9 11.9Z" fill="#D9D9D9"/>
</g>
<defs>
<clipPath id="clip0_4717_2657">
<rect width="30" height="30" fill="white"/>
</clipPath>
</defs>
</svg>
