<svg width="106" height="29" viewBox="0 0 106 29" fill="none" xmlns="http://www.w3.org/2000/svg">
<path d="M1.14844 6.03125H12.9844V9.64062H5.60156V12.7109H12.2344V16.3203H5.60156V23H1.14844V6.03125ZM25.4453 12.3359C25.375 11.5234 25.0742 10.8789 24.543 10.4023C24.0195 9.92578 23.3125 9.6875 22.4219 9.6875C21.6484 9.6875 20.9844 9.87891 20.4297 10.2617C19.8828 10.6445 19.4648 11.1992 19.1758 11.9258C18.8867 12.6445 18.7422 13.5078 18.7422 14.5156C18.7422 16.0938 19.0586 17.293 19.6914 18.1133C20.332 18.9336 21.2344 19.3438 22.3984 19.3438C23.2422 19.3438 23.9297 19.1289 24.4609 18.6992C25 18.2617 25.3281 17.6641 25.4453 16.9062L29.9688 16.9531C29.8828 17.9766 29.5312 18.9727 28.9141 19.9414C28.3047 20.9023 27.4336 21.6914 26.3008 22.3086C25.1758 22.9258 23.8438 23.2344 22.3047 23.2344C20.7344 23.2344 19.332 22.8945 18.0977 22.2148C16.8633 21.5352 15.8945 20.5391 15.1914 19.2266C14.4961 17.9141 14.1484 16.3438 14.1484 14.5156C14.1484 12.6875 14.5039 11.1172 15.2148 9.80469C15.9258 8.49219 16.8984 7.49609 18.1328 6.81641C19.3672 6.13672 20.7578 5.79688 22.3047 5.79688C23.7188 5.79688 24.9805 6.05469 26.0898 6.57031C27.1992 7.07812 28.0898 7.82422 28.7617 8.80859C29.4414 9.79297 29.8438 10.9688 29.9688 12.3359H25.4453ZM47.9375 14.5156C47.9375 16.3438 47.5781 17.9141 46.8594 19.2266C46.1484 20.5391 45.1719 21.5352 43.9297 22.2148C42.6875 22.8945 41.2891 23.2344 39.7344 23.2344C38.1719 23.2344 36.7656 22.8945 35.5156 22.2148C34.2734 21.5352 33.293 20.5391 32.5742 19.2266C31.8633 17.9141 31.5078 16.3438 31.5078 14.5156C31.5078 12.6875 31.8633 11.1172 32.5742 9.80469C33.293 8.49219 34.2734 7.49609 35.5156 6.81641C36.7578 6.13672 38.1641 5.79688 39.7344 5.79688C41.2891 5.79688 42.6875 6.13672 43.9297 6.81641C45.1719 7.49609 46.1484 8.49219 46.8594 9.80469C47.5781 11.1172 47.9375 12.6875 47.9375 14.5156ZM43.3438 14.5156C43.3438 12.9609 43.0312 11.7695 42.4062 10.9414C41.7891 10.1055 40.8984 9.6875 39.7344 9.6875C38.5625 9.6875 37.6641 10.1055 37.0391 10.9414C36.4141 11.7695 36.1016 12.9609 36.1016 14.5156C36.1016 16.0703 36.4141 17.2656 37.0391 18.1016C37.6641 18.9297 38.5625 19.3438 39.7344 19.3438C40.8984 19.3438 41.7891 18.9297 42.4062 18.1016C43.0312 17.2656 43.3438 16.0703 43.3438 14.5156Z" fill="#303030"/>
<path d="M54.2891 14.5156H56.1953V15.9531H56.3047C56.4766 15.4688 56.7656 15.0911 57.1719 14.8203C57.5833 14.5443 58.0703 14.4062 58.6328 14.4062C59.2057 14.4062 59.6901 14.5417 60.0859 14.8125C60.4818 15.0833 60.763 15.4635 60.9297 15.9531H61.0234C61.2109 15.4792 61.5286 15.1042 61.9766 14.8281C62.4297 14.5469 62.9609 14.4062 63.5703 14.4062C64.0911 14.4062 64.5495 14.5182 64.9453 14.7422C65.3464 14.9609 65.6562 15.2891 65.875 15.7266C66.099 16.1589 66.2109 16.6823 66.2109 17.2969V23H64.2266V17.6094C64.2266 17.1042 64.0911 16.724 63.8203 16.4688C63.5547 16.2083 63.2057 16.0781 62.7734 16.0781C62.2891 16.0781 61.9089 16.2292 61.6328 16.5312C61.362 16.8281 61.2266 17.2188 61.2266 17.7031V23H59.2891V17.5312C59.2891 17.2448 59.2266 16.9922 59.1016 16.7734C58.9818 16.5495 58.8125 16.3776 58.5938 16.2578C58.3802 16.138 58.1328 16.0781 57.8516 16.0781C57.5651 16.0781 57.3021 16.1536 57.0625 16.3047C56.8281 16.4505 56.6406 16.6589 56.5 16.9297C56.3594 17.1953 56.2891 17.5 56.2891 17.8438V23H54.2891V14.5156ZM67.4266 20.6094C67.4266 19.7344 67.7208 19.1042 68.3094 18.7188C68.9031 18.3281 69.6609 18.1042 70.5828 18.0469C71.4839 17.9844 72.2078 17.9427 72.7547 17.9219V17.25C72.7547 16.8281 72.6219 16.5026 72.3562 16.2734C72.0906 16.0391 71.713 15.9219 71.2234 15.9219C70.7911 15.9219 70.437 16.013 70.1609 16.1953C69.8849 16.3776 69.7078 16.625 69.6297 16.9375H67.7078C67.7547 16.4531 67.9266 16.0208 68.2234 15.6406C68.5203 15.2552 68.9292 14.9531 69.45 14.7344C69.9708 14.5156 70.5776 14.4062 71.2703 14.4062C71.8641 14.4062 72.4214 14.5 72.9422 14.6875C73.4682 14.8698 73.8979 15.1797 74.2312 15.6172C74.5698 16.0495 74.7391 16.6198 74.7391 17.3281V23H72.8328V21.8281H72.7703C72.562 22.224 72.2495 22.5469 71.8328 22.7969C71.4161 23.0469 70.8953 23.1719 70.2703 23.1719C69.7234 23.1719 69.2339 23.0729 68.8016 22.875C68.3745 22.6771 68.0385 22.3854 67.7937 22C67.549 21.6146 67.4266 21.151 67.4266 20.6094ZM69.3484 20.5938C69.3484 20.9531 69.4786 21.2292 69.7391 21.4219C69.9995 21.6094 70.3484 21.7031 70.7859 21.7031C71.1766 21.7031 71.5229 21.625 71.825 21.4688C72.1271 21.3125 72.3589 21.1016 72.5203 20.8359C72.687 20.5651 72.7703 20.2708 72.7703 19.9531L72.7625 19.2578L70.8953 19.375C70.4057 19.4167 70.0255 19.5391 69.7547 19.7422C69.4839 19.9453 69.3484 20.2292 69.3484 20.5938ZM78.3141 23H76.3141V14.5156H78.2203V15.9531H78.3297C78.5276 15.4635 78.8401 15.0833 79.2672 14.8125C79.6995 14.5417 80.2255 14.4062 80.8453 14.4062C81.4339 14.4062 81.9469 14.5312 82.3844 14.7812C82.8271 15.0312 83.1656 15.3958 83.4 15.875C83.6396 16.3542 83.7568 16.9271 83.7516 17.5938V23H81.7672V17.9062C81.7672 17.3333 81.6214 16.888 81.3297 16.5703C81.038 16.2526 80.6318 16.0938 80.1109 16.0938C79.7568 16.0938 79.4443 16.1719 79.1734 16.3281C78.9026 16.4792 78.6917 16.7005 78.5406 16.9922C78.3896 17.2786 78.3141 17.625 78.3141 18.0312V23ZM90.7797 14.5156H92.7641V23H90.8422V21.5H90.7484C90.5453 21.9896 90.2224 22.3802 89.7797 22.6719C89.3422 22.9635 88.8161 23.1094 88.2016 23.1094C87.6443 23.1094 87.1521 22.9844 86.725 22.7344C86.2979 22.4844 85.9646 22.1198 85.725 21.6406C85.4854 21.1615 85.363 20.5885 85.3578 19.9219V14.5156H87.3578V19.6094C87.3578 19.9635 87.4229 20.276 87.5531 20.5469C87.6885 20.8125 87.876 21.0182 88.1156 21.1641C88.3604 21.3047 88.6443 21.375 88.9672 21.375C89.2693 21.375 89.5583 21.3021 89.8344 21.1562C90.1156 21.0052 90.3422 20.7839 90.5141 20.4922C90.6911 20.2005 90.7797 19.849 90.7797 19.4375V14.5156ZM93.9797 20.6094C93.9797 19.7344 94.274 19.1042 94.8625 18.7188C95.4563 18.3281 96.2141 18.1042 97.1359 18.0469C98.037 17.9844 98.7609 17.9427 99.3078 17.9219V17.25C99.3078 16.8281 99.175 16.5026 98.9094 16.2734C98.6438 16.0391 98.2661 15.9219 97.7766 15.9219C97.3443 15.9219 96.9901 16.013 96.7141 16.1953C96.438 16.3776 96.2609 16.625 96.1828 16.9375H94.2609C94.3078 16.4531 94.4797 16.0208 94.7766 15.6406C95.0734 15.2552 95.4823 14.9531 96.0031 14.7344C96.524 14.5156 97.1307 14.4062 97.8234 14.4062C98.4172 14.4062 98.9745 14.5 99.4953 14.6875C100.021 14.8698 100.451 15.1797 100.784 15.6172C101.123 16.0495 101.292 16.6198 101.292 17.3281V23H99.3859V21.8281H99.3234C99.1151 22.224 98.8026 22.5469 98.3859 22.7969C97.9693 23.0469 97.4484 23.1719 96.8234 23.1719C96.2766 23.1719 95.787 23.0729 95.3547 22.875C94.9276 22.6771 94.5917 22.3854 94.3469 22C94.1021 21.6146 93.9797 21.151 93.9797 20.6094ZM95.9016 20.5938C95.9016 20.9531 96.0318 21.2292 96.2922 21.4219C96.5526 21.6094 96.9016 21.7031 97.3391 21.7031C97.7297 21.7031 98.076 21.625 98.3781 21.4688C98.6802 21.3125 98.912 21.1016 99.0734 20.8359C99.2401 20.5651 99.3234 20.2708 99.3234 19.9531L99.3156 19.2578L97.4484 19.375C96.9589 19.4167 96.5786 19.5391 96.3078 19.7422C96.037 19.9453 95.9016 20.2292 95.9016 20.5938ZM104.867 23H102.867V11.6875H104.867V23Z" fill="#CCCCCC"/>
</svg>
