<svg width="75" height="12" viewBox="0 0 75 12" fill="none" xmlns="http://www.w3.org/2000/svg">
<path d="M74.1875 11.4688H72.6875V2.98438H74.1875V11.4688Z" fill="#303030"/>
<path d="M65.7969 9.67578C65.7969 9.01953 66.0176 8.54688 66.459 8.25781C66.9043 7.96484 67.4727 7.79688 68.1641 7.75391C68.8398 7.70703 69.3828 7.67578 69.793 7.66016V7.15625C69.793 6.83984 69.6934 6.5957 69.4941 6.42383C69.2949 6.24805 69.0117 6.16016 68.6445 6.16016C68.3203 6.16016 68.0547 6.22852 67.8477 6.36523C67.6406 6.50195 67.5078 6.6875 67.4492 6.92188H66.0078C66.043 6.55859 66.1719 6.23438 66.3945 5.94922C66.6172 5.66016 66.9238 5.43359 67.3145 5.26953C67.7051 5.10547 68.1602 5.02344 68.6797 5.02344C69.125 5.02344 69.543 5.09375 69.9336 5.23438C70.3281 5.37109 70.6504 5.60352 70.9004 5.93164C71.1543 6.25586 71.2812 6.68359 71.2812 7.21484V11.4688H69.8516V10.5898H69.8047C69.6484 10.8867 69.4141 11.1289 69.1016 11.3164C68.7891 11.5039 68.3984 11.5977 67.9297 11.5977C67.5195 11.5977 67.1523 11.5234 66.8281 11.375C66.5078 11.2266 66.2559 11.0078 66.0723 10.7188C65.8887 10.4297 65.7969 10.082 65.7969 9.67578ZM67.2383 9.66406C67.2383 9.93359 67.3359 10.1406 67.5312 10.2852C67.7266 10.4258 67.9883 10.4961 68.3164 10.4961C68.6094 10.4961 68.8691 10.4375 69.0957 10.3203C69.3223 10.2031 69.4961 10.0449 69.6172 9.8457C69.7422 9.64258 69.8047 9.42188 69.8047 9.18359L69.7988 8.66211L68.3984 8.75C68.0312 8.78125 67.7461 8.87305 67.543 9.02539C67.3398 9.17773 67.2383 9.39062 67.2383 9.66406Z" fill="#303030"/>
<path d="M63.1719 5.10547H64.6602V11.4688H63.2188V10.3438H63.1484C62.9961 10.7109 62.7539 11.0039 62.4219 11.2227C62.0938 11.4414 61.6992 11.5508 61.2383 11.5508C60.8203 11.5508 60.4512 11.457 60.1309 11.2695C59.8105 11.082 59.5605 10.8086 59.3809 10.4492C59.2012 10.0898 59.1094 9.66016 59.1055 9.16016V5.10547H60.6055V8.92578C60.6055 9.19141 60.6543 9.42578 60.752 9.62891C60.8535 9.82812 60.9941 9.98242 61.1738 10.0918C61.3574 10.1973 61.5703 10.25 61.8125 10.25C62.0391 10.25 62.2559 10.1953 62.4629 10.0859C62.6738 9.97266 62.8438 9.80664 62.9727 9.58789C63.1055 9.36914 63.1719 9.10547 63.1719 8.79688V5.10547Z" fill="#303030"/>
<path d="M53.5977 11.4688H52.0977V5.10547H53.5273V6.18359H53.6094C53.7578 5.81641 53.9922 5.53125 54.3125 5.32812C54.6367 5.125 55.0312 5.02344 55.4961 5.02344C55.9375 5.02344 56.3223 5.11719 56.6504 5.30469C56.9824 5.49219 57.2363 5.76562 57.4121 6.125C57.5918 6.48438 57.6797 6.91406 57.6758 7.41406V11.4688H56.1875V7.64844C56.1875 7.21875 56.0781 6.88477 55.8594 6.64648C55.6406 6.4082 55.3359 6.28906 54.9453 6.28906C54.6797 6.28906 54.4453 6.34766 54.2422 6.46484C54.0391 6.57812 53.8809 6.74414 53.7676 6.96289C53.6543 7.17773 53.5977 7.4375 53.5977 7.74219V11.4688Z" fill="#303030"/>
<path d="M45.207 9.67578C45.207 9.01953 45.4277 8.54688 45.8691 8.25781C46.3145 7.96484 46.8828 7.79688 47.5742 7.75391C48.25 7.70703 48.793 7.67578 49.2031 7.66016V7.15625C49.2031 6.83984 49.1035 6.5957 48.9043 6.42383C48.7051 6.24805 48.4219 6.16016 48.0547 6.16016C47.7305 6.16016 47.4648 6.22852 47.2578 6.36523C47.0508 6.50195 46.918 6.6875 46.8594 6.92188H45.418C45.4531 6.55859 45.582 6.23438 45.8047 5.94922C46.0273 5.66016 46.334 5.43359 46.7246 5.26953C47.1152 5.10547 47.5703 5.02344 48.0898 5.02344C48.5352 5.02344 48.9531 5.09375 49.3438 5.23438C49.7383 5.37109 50.0605 5.60352 50.3105 5.93164C50.5645 6.25586 50.6914 6.68359 50.6914 7.21484V11.4688H49.2617V10.5898H49.2148C49.0586 10.8867 48.8242 11.1289 48.5117 11.3164C48.1992 11.5039 47.8086 11.5977 47.3398 11.5977C46.9297 11.5977 46.5625 11.5234 46.2383 11.375C45.918 11.2266 45.666 11.0078 45.4824 10.7188C45.2988 10.4297 45.207 10.082 45.207 9.67578ZM46.6484 9.66406C46.6484 9.93359 46.7461 10.1406 46.9414 10.2852C47.1367 10.4258 47.3984 10.4961 47.7266 10.4961C48.0195 10.4961 48.2793 10.4375 48.5059 10.3203C48.7324 10.2031 48.9062 10.0449 49.0273 9.8457C49.1523 9.64258 49.2148 9.42188 49.2148 9.18359L49.209 8.66211L47.8086 8.75C47.4414 8.78125 47.1562 8.87305 46.9531 9.02539C46.75 9.17773 46.6484 9.39062 46.6484 9.66406Z" fill="#303030"/>
<path d="M35.1289 5.10547H36.5586V6.18359H36.6406C36.7695 5.82031 36.9863 5.53711 37.291 5.33398C37.5996 5.12695 37.9648 5.02344 38.3867 5.02344C38.8164 5.02344 39.1797 5.125 39.4766 5.32812C39.7734 5.53125 39.9844 5.81641 40.1094 6.18359H40.1797C40.3203 5.82812 40.5586 5.54688 40.8945 5.33984C41.2344 5.12891 41.6328 5.02344 42.0898 5.02344C42.4805 5.02344 42.8242 5.10742 43.1211 5.27539C43.4219 5.43945 43.6543 5.68555 43.8184 6.01367C43.9863 6.33789 44.0703 6.73047 44.0703 7.19141V11.4688H42.582V7.42578C42.582 7.04688 42.4805 6.76172 42.2773 6.57031C42.0781 6.375 41.8164 6.27734 41.4922 6.27734C41.1289 6.27734 40.8438 6.39062 40.6367 6.61719C40.4336 6.83984 40.332 7.13281 40.332 7.49609V11.4688H38.8789V7.36719C38.8789 7.15234 38.832 6.96289 38.7383 6.79883C38.6484 6.63086 38.5215 6.50195 38.3574 6.41211C38.1973 6.32227 38.0117 6.27734 37.8008 6.27734C37.5859 6.27734 37.3887 6.33398 37.209 6.44727C37.0332 6.55664 36.8926 6.71289 36.7871 6.91602C36.6816 7.11523 36.6289 7.34375 36.6289 7.60156V11.4688H35.1289V5.10547Z" fill="#303030"/>
<path d="M30.8594 5.8125C30.8594 7.03125 30.6198 8.07812 30.1406 8.95312C29.6667 9.82812 29.0156 10.4922 28.1875 10.9453C27.3594 11.3984 26.4271 11.625 25.3906 11.625C24.349 11.625 23.4115 11.3984 22.5781 10.9453C21.75 10.4922 21.0964 9.82812 20.6172 8.95312C20.1432 8.07812 19.9062 7.03125 19.9062 5.8125C19.9062 4.59375 20.1432 3.54688 20.6172 2.67188C21.0964 1.79688 21.75 1.13281 22.5781 0.679688C23.4062 0.226562 24.3438 0 25.3906 0C26.4271 0 27.3594 0.226562 28.1875 0.679688C29.0156 1.13281 29.6667 1.79688 30.1406 2.67188C30.6198 3.54688 30.8594 4.59375 30.8594 5.8125ZM27.7969 5.8125C27.7969 4.77604 27.5885 3.98177 27.1719 3.42969C26.7604 2.8724 26.1667 2.59375 25.3906 2.59375C24.6094 2.59375 24.0104 2.8724 23.5938 3.42969C23.1771 3.98177 22.9688 4.77604 22.9688 5.8125C22.9688 6.84896 23.1771 7.64583 23.5938 8.20312C24.0104 8.75521 24.6094 9.03125 25.3906 9.03125C26.1667 9.03125 26.7604 8.75521 27.1719 8.20312C27.5885 7.64583 27.7969 6.84896 27.7969 5.8125Z" fill="#303030"/>
<path d="M16.0312 4.35938C15.9844 3.81771 15.7839 3.38802 15.4297 3.07031C15.0807 2.7526 14.6094 2.59375 14.0156 2.59375C13.5 2.59375 13.0573 2.72135 12.6875 2.97656C12.3229 3.23177 12.0443 3.60156 11.8516 4.08594C11.6589 4.5651 11.5625 5.14062 11.5625 5.8125C11.5625 6.86458 11.7734 7.66406 12.1953 8.21094C12.6224 8.75781 13.224 9.03125 14 9.03125C14.5625 9.03125 15.0208 8.88802 15.375 8.60156C15.7344 8.3099 15.9531 7.91146 16.0312 7.40625L19.0469 7.4375C18.9896 8.11979 18.7552 8.78385 18.3438 9.42969C17.9375 10.0703 17.3568 10.5964 16.6016 11.0078C15.8516 11.4193 14.9635 11.625 13.9375 11.625C12.8906 11.625 11.9557 11.3984 11.1328 10.9453C10.3099 10.4922 9.66406 9.82812 9.19531 8.95312C8.73177 8.07812 8.5 7.03125 8.5 5.8125C8.5 4.59375 8.73698 3.54688 9.21094 2.67188C9.6849 1.79688 10.3333 1.13281 11.1562 0.679688C11.9792 0.226562 12.9062 0 13.9375 0C14.8802 0 15.7214 0.171875 16.4609 0.515625C17.2005 0.854167 17.7943 1.35156 18.2422 2.00781C18.6953 2.66406 18.9635 3.44792 19.0469 4.35938H16.0312Z" fill="#303030"/>
<path d="M0 0.15625H7.89062V2.5625H2.96875V4.60938H7.39062V7.01562H2.96875V11.4688H0V0.15625Z" fill="#303030"/>
</svg>
