<svg width="30" height="30" viewBox="0 0 30 30" fill="none" xmlns="http://www.w3.org/2000/svg">
<g clip-path="url(#clip0_4717_2662)">
<path d="M13.7998 1.79961C14.1998 0.699609 15.7998 0.699609 16.0998 1.79961L18.7998 9.89961C18.9998 10.3996 19.3998 10.6996 19.9998 10.6996H28.6998C29.8998 10.6996 30.3998 12.1996 29.3998 12.8996L22.2998 17.8996C21.8998 18.1996 21.6998 18.6996 21.8998 19.1996L24.5998 27.2996C24.9998 28.3996 23.6998 29.2996 22.6998 28.5996L15.5998 23.5996C15.1998 23.2996 14.5998 23.2996 14.1998 23.5996L7.0998 28.5996C6.0998 29.2996 4.7998 28.3996 5.1998 27.2996L7.8998 19.1996C8.0998 18.6996 7.8998 18.1996 7.4998 17.8996L0.499805 12.8996C-0.500195 12.1996 -0.000195384 10.6996 1.1998 10.6996H9.8998C10.3998 10.6996 10.8998 10.3996 11.0998 9.89961L13.7998 1.79961Z" fill="#D9D9D9"/>
</g>
<defs>
<clipPath id="clip0_4717_2662">
<rect width="30" height="30" fill="white"/>
</clipPath>
</defs>
</svg>
