<?xml version="1.0" encoding="UTF-8"?>
<svg id="Layer_1" xmlns="http://www.w3.org/2000/svg" version="1.1" viewBox="0 0 24 24">
  <!-- Generator: Adobe Illustrator 29.7.0, SVG Export Plug-In . SVG Version: 2.1.1 Build 138)  -->
  <defs>
    <style>
      .st0 {
        fill: none;
      }

      .st1 {
        fill: #f6ce46;
      }
    </style>
  </defs>
  <path class="st0" d="M0,0h24v24H0V0Z"/>
  <path class="st0" d="M0,0h24v24H0V0Z"/>
  <path class="st1" d="M12.3,17.4l4.9,3c.4.2.8-.1.7-.5l-1.3-5.6c0-.2,0-.4.2-.5l4.3-3.8c.3-.3.2-.8-.3-.9l-5.7-.5c-.2,0-.3-.1-.4-.3l-2.2-5.3c-.2-.4-.7-.4-.9,0l-2.2,5.3c0,.2-.2.3-.4.3l-5.7.5c-.4,0-.6.6-.3.9l4.3,3.8c.1.1.2.3.2.5l-1.3,5.6c-.1.4.4.8.7.5l4.9-3c.2,0,.4,0,.5,0Z"/>
</svg>