<?xml version="1.0" encoding="UTF-8"?>
<svg id="Layer_1" xmlns="http://www.w3.org/2000/svg" version="1.1" viewBox="0 0 24 24">
  <!-- Generator: Adobe Illustrator 29.7.0, SVG Export Plug-In . SVG Version: 2.1.1 Build 138)  -->
  <defs>
    <style>
      .st0 {
        fill: none;
      }

      .st1 {
        fill: #e3e3e3;
      }
    </style>
  </defs>
  <path class="st0" d="M0,0h24v24H0V0Z"/>
  <path class="st1" d="M12,2C6.5,2,2,6.5,2,12s4.5,10,10,10,10-4.5,10-10S17.5,2,12,2ZM15.2,17.4l-3-1.8c-.2,0-.4,0-.5,0l-3,1.8c-.4.2-.8-.1-.7-.5l.8-3.4c0-.2,0-.4-.2-.5l-2.6-2.3c-.3-.3-.2-.8.3-.9l3.4-.3c.2,0,.3-.1.4-.3l1.3-3.2c.2-.4.7-.4.9,0l1.3,3.2c0,.2.2.3.4.3l3.4.3c.4,0,.6.6.3.9l-2.6,2.3c-.1.1-.2.3-.2.5l.8,3.4c.1.4-.4.8-.7.5Z"/>
</svg>