<svg width="30" height="30" viewBox="0 0 30 30" fill="none" xmlns="http://www.w3.org/2000/svg">
<g clip-path="url(#clip0_4717_2660)">
<path d="M15 0C6.7 0 0 6.7 0 15V27C0 28.7 1.3 30 3 30H15C23.3 30 30 23.3 30 15C30 6.7 23.3 0 15 0ZM17 19H9C8.4 19 8 18.6 8 18C8 17.4 8.4 17 9 17H17C17.6 17 18 17.4 18 18C18 18.6 17.6 19 17 19ZM21 13H9C8.4 13 8 12.6 8 12C8 11.4 8.4 11 9 11H21C21.6 11 22 11.4 22 12C22 12.6 21.6 13 21 13Z" fill="#D9D9D9"/>
</g>
<defs>
<clipPath id="clip0_4717_2660">
<rect width="30" height="30" fill="white"/>
</clipPath>
</defs>
</svg>
